<svg width="21" height="24" viewBox="0 0 21 24" fill="none" xmlns="http://www.w3.org/2000/svg">
<g id="icons_basket">
<path id="Vector 17" d="M0 5H3M21 5H18M18 5L17 20.9429C17 22.5886 15.3333 23 15 23H6.5C5.3 23 4 22.4857 4 20.9429L3 5M18 5H3" stroke="black"/>
<path id="Ellipse 10" d="M15.5 5C15.5 3.67392 14.9732 2.40215 14.0355 1.46447C13.0979 0.526784 11.8261 1.00116e-07 10.5 0C9.17392 -1.00116e-07 7.90215 0.526784 6.96447 1.46447C6.02678 2.40215 5.5 3.67392 5.5 5L6.61198 5C6.61198 3.96883 7.02161 2.9799 7.75076 2.25076C8.4799 1.52161 9.46883 1.11198 10.5 1.11198C11.5312 1.11198 12.5201 1.52161 13.2492 2.25076C13.9784 2.9799 14.388 3.96883 14.388 5H15.5Z" fill="black"/>
<path id="Vector 18" d="M13 11V17" stroke="black"/>
<path id="Vector 19" d="M8 11V17" stroke="black"/>
</g>
</svg>
