<svg width="20" height="13" viewBox="0 0 20 13" fill="none" xmlns="http://www.w3.org/2000/svg">
<g id="&#209;&#129;&#208;&#191;&#208;&#190;&#209;&#129;&#208;&#190;&#208;&#177;&#209;&#139; &#208;&#190;&#208;&#191;&#208;&#187;&#208;&#176;&#209;&#130;&#209;&#139;">
<rect id="Rectangle 106" x="0.5" y="0.5" width="19" height="12" rx="1.5" stroke="black"/>
<path id="Vector 34" d="M19.4728 3H0.525391V5.5H19.4728" stroke="black"/>
<path id="Vector 35" d="M10 8.5H17.3677" stroke="black"/>
<path id="Vector 36" d="M15.2637 10H17.3687" stroke="black"/>
<g id="Union">
<mask id="path-5-inside-1_601_1863" fill="white">
<path fill-rule="evenodd" clip-rule="evenodd" d="M4.62688 10.2789C4.37737 10.5224 4.04528 10.671 3.68072 10.671C2.90566 10.671 2.27734 9.99945 2.27734 9.17102C2.27734 8.34259 2.90566 7.67102 3.68072 7.67102C4.04724 7.67102 4.38095 7.8212 4.63091 8.06713C4.88042 7.82354 5.21251 7.67497 5.57706 7.67497C6.35213 7.67497 6.98044 8.34654 6.98044 9.17497C6.98044 10.0034 6.35213 10.675 5.57706 10.675C5.21054 10.675 4.87684 10.5248 4.62688 10.2789Z"/>
</mask>
<path d="M4.62688 10.2789L4.90741 9.99373L4.62797 9.71879L4.34745 9.99264L4.62688 10.2789ZM4.63091 8.06713L4.35037 8.35226L4.62982 8.6272L4.91033 8.35335L4.63091 8.06713ZM4.34745 9.99264C4.167 10.1688 3.9332 10.271 3.68072 10.271V11.071C4.15735 11.071 4.58773 10.8761 4.9063 10.5651L4.34745 9.99264ZM3.68072 10.271C3.15124 10.271 2.67734 9.80404 2.67734 9.17102H1.87734C1.87734 10.1949 2.66007 11.071 3.68072 11.071V10.271ZM2.67734 9.17102C2.67734 8.538 3.15124 8.07102 3.68072 8.07102V7.27102C2.66007 7.27102 1.87734 8.14718 1.87734 9.17102H2.67734ZM3.68072 8.07102C3.93454 8.07102 4.16953 8.17433 4.35037 8.35226L4.91144 7.782C4.59237 7.46807 4.15994 7.27102 3.68072 7.27102V8.07102ZM4.91033 8.35335C5.09078 8.17719 5.32458 8.07497 5.57706 8.07497V7.27497C5.10044 7.27497 4.67006 7.4699 4.35148 7.78091L4.91033 8.35335ZM5.57706 8.07497C6.10654 8.07497 6.58044 8.54195 6.58044 9.17497H7.38044C7.38044 8.15113 6.59771 7.27497 5.57706 7.27497V8.07497ZM6.58044 9.17497C6.58044 9.80799 6.10654 10.275 5.57706 10.275V11.075C6.59771 11.075 7.38044 10.1988 7.38044 9.17497H6.58044ZM5.57706 10.275C5.32324 10.275 5.08826 10.1717 4.90741 9.99373L4.34634 10.564C4.66542 10.8779 5.09784 11.075 5.57706 11.075V10.275Z" fill="black" mask="url(#path-5-inside-1_601_1863)"/>
</g>
</g>
</svg>
